<?xml version="1.0" encoding="UTF-8"?>
<svg id="Layer_2" data-name="Layer 2" xmlns="http://www.w3.org/2000/svg" viewBox="0 0 46.34 36.49">
  <g id="Layer_1-2" data-name="Layer 1">
    <g>
      <g>
        <path d="m24.56,29.94c.04.09.17.09.21,0,1.34-3.15,2.61-6.17,3.82-9.07.94-2.27,1.06-4.48.34-6.63-1.23-3.7-4.88-6.36-3.64-10.68.54-1.89,2.03-3.3,4-3.46.92-.07,1.92-.11,3-.1,4.58.02,9.16.02,13.73,0,.41,0,.42.04.01.13-1.57.35-3.1.79-4.58,1.48-5.02,2.35-7.05,6.73-9.13,11.8-3.08,7.49-6.24,15.15-9.48,22.97-.02.03-.04.06-.07.08-.09.06-.21.02-.26-.07-5.09-10.1-9.73-19.28-13.93-27.53-.62-1.22-1.37-2.36-2.08-3.52C5.01,2.88,2.91,1.17.22.18-.08.07-.07.01.25.01h16.49c.29,0,.3.06.03.17-2.32.98-4.03,2.2-3.64,5.02.13.94.43,1.9.9,2.87,3.62,7.53,7.13,14.82,10.52,21.87m4.62-16.68c.57,1.19.75,2.25.82,3.49.02.37.1.38.24.04,1.03-2.39,2.16-5.07,3.39-8.03.99-2.38,1.63-5.51-.76-7.34-.81-.62-1.84-.91-3.09-.86-2.96.11-4.33,2.55-4.06,5.31.12,1.2.51,2.32,1.17,3.37.98,1.54,1.74,2.88,2.29,4.02h0Z" fill="#2a97a6"/>
        <path d="m32.21,35.72c2.18-.53,3.38-2.21,3.38-4.38,0-7.07,0-14.13,0-21.16,0-.36.11-.69.32-.99,1.38-1.93,3.31-4.23,5.39-5.34.11-.06.23.02.23.14,0,9.2,0,18.15,0,26.86,0,1.23.16,2.15.48,2.77.66,1.29,1.85,2.02,3.58,2.21.01,0,.02,0,.02.02v.09s-.03.06-.08.06h-14.24c-.15,0-.15-.02,0-.05.31-.07.62-.15.93-.22h0Z" fill="#2a97a6"/>
        <path d="m1.44,35.84c3.05-1,4.74-4.2,4.73-7.29,0-.24.02-.24.06,0,.46,2.8,1.31,4.95,3.71,6.65.44.31.95.49,1.45.68.21.08.21.12-.02.13-3.32.05-6.62.04-9.89,0-.29,0-.3-.05-.02-.15h0Z" fill="#2a97a6"/>
      </g>
      <g>
        <path d="m24.56,29.94c.04.09.17.09.21,0,1.34-3.15,2.61-6.17,3.82-9.07.94-2.27,1.06-4.48.34-6.63-1.23-3.7-4.88-6.36-3.64-10.68.54-1.89,2.03-3.3,4-3.46.92-.07,1.92-.11,3-.1,4.58.02,9.16.02,13.73,0,.41,0,.42.04.01.13-1.57.35-3.1.79-4.58,1.48-5.02,2.35-7.05,6.73-9.13,11.8-3.08,7.49-6.24,15.15-9.48,22.97-.02.03-.04.06-.07.08-.09.06-.21.02-.26-.07-5.09-10.1-9.73-19.28-13.93-27.53-.62-1.22-1.37-2.36-2.08-3.52C5.01,2.88,2.91,1.17.22.18-.08.07-.07.01.25.01h16.49c.29,0,.3.06.03.17-2.32.98-4.03,2.2-3.64,5.02.13.94.43,1.9.9,2.87,3.62,7.53,7.13,14.82,10.52,21.87m4.62-16.68c.57,1.19.75,2.25.82,3.49.02.37.1.38.24.04,1.03-2.39,2.16-5.07,3.39-8.03.99-2.38,1.63-5.51-.76-7.34-.81-.62-1.84-.91-3.09-.86-2.96.11-4.33,2.55-4.06,5.31.12,1.2.51,2.32,1.17,3.37.98,1.54,1.74,2.88,2.29,4.02h0Z" fill="#fff"/>
        <path d="m32.21,35.72c2.18-.53,3.38-2.21,3.38-4.38,0-7.07,0-14.13,0-21.16,0-.36.11-.69.32-.99,1.38-1.93,3.31-4.23,5.39-5.34.11-.06.23.02.23.14,0,9.2,0,18.15,0,26.86,0,1.23.16,2.15.48,2.77.66,1.29,1.85,2.02,3.58,2.21.01,0,.02,0,.02.02v.09s-.03.06-.08.06h-14.24c-.15,0-.15-.02,0-.05.31-.07.62-.15.93-.22h0Z" fill="#fff"/>
        <path d="m1.44,35.84c3.05-1,4.74-4.2,4.73-7.29,0-.24.02-.24.06,0,.46,2.8,1.31,4.95,3.71,6.65.44.31.95.49,1.45.68.21.08.21.12-.02.13-3.32.05-6.62.04-9.89,0-.29,0-.3-.05-.02-.15h0Z" fill="#fff"/>
      </g>
    </g>
  </g>
</svg>