<svg width="173" height="50" viewBox="0 0 173 50" fill="none" xmlns="http://www.w3.org/2000/svg">
<path fill-rule="evenodd" clip-rule="evenodd" d="M168.889 4.889C168.889 5.77789 168.556 6.55566 167.889 7.22233C167.223 7.889 166.445 8.22233 165.556 8.22233C164.667 8.22233 163.889 7.889 163.223 7.22233C162.556 6.55566 162.223 5.77789 162.223 4.889C162.223 4.00011 162.556 3.22233 163.223 2.55566C163.889 1.889 164.667 1.55566 165.556 1.55566C166.445 1.55566 167.223 1.889 167.889 2.55566C168.556 3.22233 168.889 4.00011 168.889 4.889ZM168.445 4.889C168.445 4.11122 168.223 3.44455 167.667 2.889C167.112 2.33344 166.445 2.00011 165.667 2.00011C164.889 2.00011 164.223 2.33344 163.667 2.889C163.112 3.44455 162.889 4.11122 162.889 4.889C162.889 5.66678 163.112 6.33344 163.667 6.889C164.223 7.44455 164.889 7.77789 165.667 7.77789C166.445 7.77789 167.112 7.44455 167.667 6.889C168.223 6.33344 168.445 5.66678 168.445 4.889ZM167.778 6.55566L166.334 5.00011C166.556 4.889 166.778 4.77789 166.889 4.66678C167 4.55566 167.112 4.33344 167.112 4.11122C167.112 3.889 167.112 3.77789 167 3.66678C166.889 3.55566 166.778 3.44455 166.667 3.33344C166.556 3.22233 166.334 3.22233 166.223 3.22233C166.112 3.22233 165.889 3.22233 165.667 3.22233H164.445V6.66678H165.112V5.22233H165.667L166.889 6.55566H167.778ZM166.445 4.11122C166.445 4.00011 166.445 3.889 166.445 3.889C166.445 3.77789 166.334 3.77789 166.223 3.66678C166.112 3.66678 166.112 3.55566 166 3.55566C165.889 3.55566 165.778 3.55566 165.667 3.55566H165.112V4.66678H165.556C165.667 4.66678 165.889 4.66678 166 4.66678C166.112 4.66678 166.223 4.55566 166.334 4.55566C166.445 4.44455 166.445 4.44455 166.445 4.33344C166.445 4.33344 166.445 4.22233 166.445 4.11122Z" fill="#2C2F38"/>
<path d="M43.8898 8.33301H39.4453L29.4453 34.9997H37.8898L39.2231 30.5552H44.0009H48.6675L50.0009 34.9997H58.6675L48.6675 8.33301H43.8898ZM43.8898 24.8886H41.0009L43.8898 15.333L46.7786 24.8886H43.8898Z" fill="#0084FF"/>
<path d="M19.2231 23.1108L9.22309 8.33301H1.44531V34.9997H9.22309V20.4441L19.2231 34.9997H27.0009V8.33301H19.2231V23.1108Z" fill="#0084FF"/>
<path d="M82.4449 25.6663C81.8893 24.9997 81.4449 24.4441 81.1115 24.2219C80.6671 23.8886 79.8893 23.5552 79.0004 23.2219C80.2227 22.9997 81.2227 22.5552 81.8893 22.2219C83.0004 21.5552 83.8893 20.6663 84.4449 19.5552C85.1115 18.4441 85.4449 17.2219 85.4449 15.6663C85.4449 13.9997 85.0004 12.5552 84.2227 11.333C83.3338 10.2219 82.2227 9.44412 80.8893 8.99967C79.556 8.55523 77.556 8.33301 75.0004 8.33301H73.3338H61.2227V34.9997H69.556V24.1108H70.3338C71.1115 24.1108 71.7782 24.333 72.3338 24.7775C72.6671 24.9997 73.0004 25.4441 73.3338 25.9997C73.4449 26.2219 73.6671 26.5552 73.7782 26.8886L78.2227 34.9997H87.556L83.556 27.2219C83.3338 26.8886 83.0004 26.333 82.4449 25.6663ZM76.556 17.9997C76.2227 18.4441 75.7782 18.7775 75.2227 18.8886C74.3338 19.1108 73.7782 19.2219 73.3338 19.2219C73.2227 19.2219 73.1115 19.2219 73.0004 19.2219H69.556V13.7775H73.2227H73.3338C74.7782 13.7775 75.7782 13.9997 76.2227 14.4441C76.7782 14.8886 77.0004 15.5552 77.0004 16.4441C77.1115 16.9997 76.8893 17.5552 76.556 17.9997Z" fill="#0084FF"/>
<path d="M127.001 8.33301H118.668V34.9997H139.89V28.4441H127.001V8.33301Z" fill="#0084FF"/>
<path d="M160.668 8.33301H156.112H151.668L141.668 34.9997H150.112L151.446 30.5552H156.224H160.89L162.224 34.9997H170.89L160.668 8.33301ZM156.112 24.8886H153.224L156.112 15.333L159.001 24.8886H156.112Z" fill="#0084FF"/>
<path fill-rule="evenodd" clip-rule="evenodd" d="M91.7793 6.3333C102.779 2.3333 116.224 9.22219 116.224 21.3333C116.224 29.1111 109.89 35.5555 102.002 35.5555C94.2237 35.5555 87.7793 29.2222 87.7793 21.3333C87.7793 14.5555 92.6682 8.88886 99.0015 7.44441C98.446 7.22219 95.1126 6.22219 91.7793 6.3333ZM102.113 14.3333C98.2237 14.3333 95.0015 17.5555 95.0015 21.4444C95.0015 25.3333 98.2237 28.5555 102.113 28.5555C106.002 28.5555 109.224 25.3333 109.224 21.4444C109.224 17.4444 106.002 14.3333 102.113 14.3333Z" fill="#0084FF"/>
<path fill-rule="evenodd" clip-rule="evenodd" d="M91.7793 6.33336C102.668 2.22225 116.224 9.22225 116.224 21.3334C116.224 29.1111 109.89 35.5556 102.002 35.5556C94.2237 35.5556 87.7793 29.2222 87.7793 21.3334C89.0015 25.3334 91.8904 28.1111 95.3349 29.3334C100.335 31.1111 104.89 29.2222 107.779 25.7778C109.446 23.7778 110.335 21.5556 110.557 19.3334C110.779 17.2222 110.335 15.1111 109.446 13.2222C106.557 7.00003 98.3349 5.11114 91.7793 6.33336Z" fill="url(#paint0_linear_1_11769)"/>
<path d="M44.334 48.2223V41.5557H45.2229V48.2223H44.334Z" fill="#2C2F38"/>
<path d="M51.4453 48.2223V41.5557H52.3342L55.8898 46.7779V41.5557H56.6675V48.2223H55.7786L52.2231 43.0001V48.2223H51.4453V48.2223Z" fill="#2C2F38"/>
<path d="M62.8887 48.2223V41.5557H67.4442V42.3334H63.7776V44.4446H66.8887V45.2223H63.7776V48.2223H62.8887V48.2223Z" fill="#2C2F38"/>
<path d="M73 45.0002C73 43.8891 73.3333 43.0002 73.8889 42.3335C74.4444 41.6668 75.2222 41.3335 76.2222 41.3335C76.8889 41.3335 77.4444 41.4446 77.8889 41.7779C78.3333 42.1113 78.7778 42.4446 79 43.0002C79.2222 43.5557 79.4445 44.1113 79.4445 44.7779C79.4445 45.4446 79.3333 46.1113 79 46.5557C78.7778 47.1113 78.3333 47.4446 77.7778 47.7779C77.2222 48.0002 76.7778 48.2224 76.1111 48.2224C75.4444 48.2224 74.8889 48.1113 74.4444 47.7779C74 47.4446 73.5556 47.1113 73.3333 46.5557C73.1111 46.1113 73 45.5557 73 45.0002ZM73.8889 45.0002C73.8889 45.7779 74.1111 46.4446 74.5556 46.8891C75 47.3335 75.5556 47.5557 76.2222 47.5557C76.8889 47.5557 77.4444 47.3335 77.8889 46.8891C78.3333 46.4446 78.5556 45.7779 78.5556 44.8891C78.5556 44.3335 78.4444 43.889 78.3333 43.4446C78.1111 43.0002 77.8889 42.6668 77.5556 42.4446C77.2222 42.2224 76.7778 42.1113 76.3333 42.1113C75.6667 42.1113 75.1111 42.3335 74.6667 42.7779C74.1111 43.2224 73.8889 44.0002 73.8889 45.0002Z" fill="#2C2F38"/>
<path d="M87.0015 48.2223V42.3334H84.7793V41.5557H90.1126V42.3334H87.8904V48.2223H87.0015Z" fill="#2C2F38"/>
<path d="M95.668 48.2223V41.5557H100.557V42.3334H96.5569V44.3334H100.224V45.1112H96.5569V47.4445H100.668V48.2223H95.668V48.2223Z" fill="#2C2F38"/>
<path d="M111.445 45.8891L112.334 46.1113C112.112 46.8891 111.779 47.4446 111.334 47.7779C110.89 48.1113 110.223 48.3335 109.556 48.3335C108.779 48.3335 108.223 48.2224 107.779 47.8891C107.334 47.5557 107.001 47.2224 106.779 46.5557C106.556 46.0002 106.445 45.4446 106.445 44.7779C106.445 44.1113 106.556 43.4446 106.89 43.0002C107.112 42.4446 107.556 42.1113 108.001 41.7779C108.445 41.5557 109.001 41.3335 109.668 41.3335C110.334 41.3335 110.89 41.5557 111.334 41.8891C111.779 42.2224 112.112 42.6668 112.334 43.3335L111.445 43.5557C111.334 43.1113 111.112 42.6668 110.779 42.4446C110.445 42.2224 110.112 42.1113 109.668 42.1113C109.112 42.1113 108.668 42.2224 108.334 42.4446C108.001 42.6668 107.779 43.0002 107.556 43.4446C107.445 43.889 107.334 44.3335 107.334 44.7779C107.334 45.3335 107.445 45.889 107.556 46.2224C107.668 46.6668 108.001 47.0002 108.334 47.2224C108.668 47.4446 109.112 47.5557 109.445 47.5557C109.89 47.5557 110.334 47.4446 110.668 47.1113C111.112 46.8891 111.334 46.4446 111.445 45.8891Z" fill="#2C2F38"/>
<path d="M118.111 48.2223V41.5557H119V44.3334H122.445V41.5557H123.334V48.2223H122.445V45.1112H119V48.2223H118.111Z" fill="#2C2F38"/>
<defs>
<linearGradient id="paint0_linear_1_11769" x1="91.8281" y1="15.1189" x2="110.743" y2="26.0396" gradientUnits="userSpaceOnUse">
<stop stop-color="#2194FF"/>
<stop offset="1" stop-color="#CBEDFF"/>
</linearGradient>
</defs>
</svg>
